<svg width="330" height="330" viewBox="0 0 330 330" fill="none" xmlns="http://www.w3.org/2000/svg">
<path d="M145.525 40.3869C125.485 43.3841 105.34 50.4059 89.8262 63.9854C77.5424 74.7221 66.524 85.8624 57.7349 99.7272C49.1455 113.16 42.3513 128.25 39.8792 144.067C37.7577 157.424 38.3016 171.167 40.3799 184.469C44.292 209.51 58.2095 234.456 76.0498 252.444C87.8646 264.359 101.907 273.855 117.312 280.533C138.228 289.557 161.91 293.205 184.473 289.68C253.268 278.932 300.366 214.392 289.618 145.597C288.171 136.337 285.691 127.306 282.264 118.623C269.453 86.2224 238.685 56.8943 205.596 45.6311C187.939 39.5053 168.927 37.5324 150.36 39.6982C148.785 39.8775 147.155 40.1322 145.525 40.3869ZM183.988 286.148C145.26 292.666 103.203 276.592 76.5369 248.293C47.8844 217.966 31.4751 165.954 48.4728 125.957C55.809 108.779 65.5865 92.6889 78.8077 79.4009C103.648 54.5446 137.796 39.6573 173.053 42.5657C197.013 44.5672 220.086 53.7212 239.298 68.0878C245.577 72.785 249.933 77.5819 255.115 83.3856C271.124 101.192 280.334 123.801 285.426 146.987C290.123 168.497 286.348 193.937 277.473 214.094C275.197 219.193 272.564 224.147 269.554 228.825C263.635 237.967 256.584 246.283 248.577 253.612C232.86 268.025 213.415 278.678 192.895 284.155C189.956 285.015 186.987 285.68 183.988 286.148Z" fill="#E1DDDC"/>
<path d="M181.23 61.1109C164.557 58.3724 146.777 58.8678 131.015 65.6905C118.548 71.0908 106.988 77.1004 96.4654 85.8772C86.2542 94.3687 77.0376 104.619 71.0284 116.572C65.9118 126.662 62.9205 137.684 61.1886 148.769C57.9285 169.636 62.6361 192.95 72.2567 211.754C78.5903 224.234 87.3407 235.354 97.8618 244.546C112.214 257.008 129.992 265.932 148.837 268.876C206.221 277.841 259.978 238.611 268.943 181.228C270.146 173.533 270.5 165.706 269.976 157.942C268.021 128.979 251.038 97.869 227.63 80.5178C215.122 71.2156 200.55 64.8641 185.318 61.8831C183.893 61.5938 182.599 61.3248 181.23 61.1109ZM149.22 265.996C116.815 261.335 87.5506 237.858 73.5384 208.681C58.5379 177.28 58.7593 131.823 82.4071 104.456C92.5957 92.6875 104.417 82.4434 118.308 75.1949C144.397 61.7024 175.28 58.578 202.565 69.9218C221.068 77.6222 237.055 90.7411 248.603 107.041C252.379 112.374 254.621 117.266 257.307 123.164C265.489 141.342 267.062 161.628 265.19 181.309C263.466 199.61 253.983 218.837 241.817 232.567C238.738 236.028 235.354 239.306 231.749 242.284C224.776 248.008 217.002 252.872 208.794 256.667C192.604 264.09 174.476 267.671 156.855 266.722C154.272 266.585 151.773 266.329 149.22 265.996Z" fill="#E1DDDC"/>
<path d="M152.153 82.9881C137.768 85.8367 123.944 92.2717 112.418 101.02C89.9678 118.088 78.0952 150.27 82.4047 177.853C86.6632 205.11 108.442 231.634 133.867 242.158C146.585 247.452 160.605 249.537 174.315 247.929C175.499 247.811 176.607 247.638 177.781 247.455C199.104 244.123 218.412 230.886 231.324 213.906C256.597 180.699 252.349 132.13 221.583 103.671C207.684 90.812 187.791 81.495 168.598 81.3541C163.118 81.3418 157.6 81.9367 152.153 82.9881ZM177.398 244.575C169.964 245.737 162.272 245.669 154.43 244.222C120.043 237.905 92.4707 212.353 86.9693 177.14C83.8722 157.317 88.431 136.898 99.6023 120.323C110.014 104.869 126.491 93.6106 144.222 88.2352C158.382 83.9521 173.916 83.3288 188.187 87.4453C218.545 96.1959 238.156 122.524 242.883 152.781C247.223 180.56 236.202 207.933 215.702 226.366C205.091 235.84 191.483 242.375 177.398 244.575Z" fill="#E1DDDC"/>
<path d="M174.125 106.902C163.13 105.451 150.61 107.771 140.488 112.268C124.977 119.197 112.414 133.333 108.035 149.816C104.021 164.821 107.465 181.257 115.423 194.458C121.106 203.829 129.101 212.092 138.768 217.343C159.871 228.924 190.544 223.295 207.102 206.243C214.662 198.472 220.064 188.695 222.452 178.113C222.721 176.819 222.99 175.525 223.204 174.156C226.699 151.789 214.329 124.072 193.951 113.406C187.546 109.934 180.873 107.756 174.125 106.902ZM156.442 219.236C149.444 218.277 141.175 213.912 135.298 210.054C128.449 205.578 122.366 199.617 118.192 192.552C113.279 184.236 110.913 174.581 111.011 164.977C111.051 154.028 113.543 141.926 119.952 132.974C133.967 113.387 156.423 108.612 179.136 112.027C193.166 114.152 204.543 124.28 211.35 136.298C217.736 147.583 222.216 159.105 219.787 172.085C217.49 184.218 210.862 195.006 202.957 204.125C196.039 212.063 183.915 216.982 173.634 218.649C168.173 219.399 162.135 219.992 156.442 219.236Z" fill="#E1DDDC"/>
<path d="M160.111 133.733C154.568 134.599 149.205 137.04 144.872 140.522C121.002 159.616 140.026 200.999 169.891 196.333C185.28 193.929 195.123 182.104 196.006 166.802C197.129 147.054 179.543 130.697 160.111 133.733ZM169.164 192.105C163.165 193.042 157.076 192.123 152.055 188.632C148.315 186.077 145.346 182.466 142.889 178.708C137.259 170.035 135.839 161.373 140.99 152.017C148.265 138.723 162.22 134.405 176.071 139.255C185.261 142.495 190.445 151.305 191.942 160.89C194.275 175.823 184.096 189.772 169.164 192.105Z" fill="#E1DDDC"/>
</svg>
