<svg width="165" height="179" viewBox="0 0 165 179" fill="none" xmlns="http://www.w3.org/2000/svg">
<path d="M142.269 89.7983C129.141 113.423 109.197 135.018 84.0779 147.427C67.9207 155.541 53.0257 157.808 35.48 154.467C34.4702 154.228 33.4603 153.87 32.3243 153.751C31.3145 153.632 30.1784 153.87 29.0423 154.944C22.9834 160.91 16.9244 166.398 10.9917 172.364C9.47697 173.915 4.6803 179.523 2.15573 178.33C-0.747518 176.898 1.39836 175.466 2.66064 174.034C4.55407 171.648 9.22451 166.875 11.4966 164.728C16.2933 160.074 21.7211 154.705 25.3817 149.694C28.0325 145.995 23.9932 135.376 24.3719 129.053C25.1293 113.9 30.3046 99.1048 37.3734 85.503C50.3749 60.5662 71.7075 35.7488 98.2154 23.2208C111.469 17.1358 124.85 11.1701 139.113 6.99406C146.813 4.72709 162.971 -7.44298 164.233 7.59064C166.126 31.0956 159.057 54.8391 149.212 76.1964C147.066 80.7304 144.667 85.3836 142.269 89.7983Z" fill="#B9E2BF"/>
</svg>
