<svg width="163" height="170" viewBox="0 0 163 170" fill="none" xmlns="http://www.w3.org/2000/svg">
<path d="M124.839 140.633C127.458 141.116 132.821 141.236 136.687 141.236C146.041 147.872 146.166 149.199 153.649 158.126C153.898 158.488 160.882 169.829 161.381 169.949C162.254 170.07 162.379 165.365 162.005 164.641C154.023 150.043 148.286 148.354 141.052 137.979C141.8 132.671 144.17 128.69 144.295 123.985C144.669 113.368 142.299 102.752 138.059 92.9798C129.828 73.1946 114.737 55.5809 97.6508 42.1897C72.0839 21.1981 39.6576 -3.29215 3.86395 1.41287C1.12018 1.7748 0.371883 3.34314 1.36962 6.11789C5.11111 17.0963 9.35147 27.3508 12.3447 38.4498C15.3379 49.7901 19.8277 60.6479 25.8141 70.7818C37.7868 91.2908 55.8707 108.543 76.0748 121.451C86.4263 128.087 97.6508 133.636 109.499 137.255C114.363 138.703 119.601 139.668 124.839 140.633Z" fill="#B9E2BF"/>
</svg>
