<svg width="1440" height="200" viewBox="0 0 1440 200" fill="none" xmlns="http://www.w3.org/2000/svg">
<path d="M1512.02 200V57.0099C1493.75 52.3559 1475.25 52.3147 1440.63 57.6607C1383.79 66.4333 1315.43 89.6706 1258.69 99.061C1193.21 109.909 1152.42 58.0972 1057.96 20.1236C975.78 -12.9159 850.432 -1.5156 735.231 27.2488C703.617 35.1401 591.559 66.5569 562.783 71.9523C491.293 85.3707 412.248 95.2472 355.553 85.865C298.857 76.4827 279.561 29.9836 222.726 21.2109C154.708 10.7084 58.8356 26.7628 -5.22444 52.0429C-21.114 58.3196 -53.5843 67.6277 -72 71.285V200H1512.02Z" fill="#3A173C"/>
</svg>
