<svg width="25" height="26" viewBox="0 0 25 26" fill="none" xmlns="http://www.w3.org/2000/svg">
<path d="M11.9259 0.14241L0.785665 5.3485C0.54761 5.45878 0.346562 5.6365 0.207052 5.85995C0.0675413 6.08341 -0.00439916 6.34294 7.89949e-06 6.60689V19.4141C-0.00066918 19.6772 0.0728007 19.9352 0.211878 20.158C0.350954 20.3807 0.549926 20.5591 0.785665 20.6725L11.9259 25.8786C12.105 25.9589 12.2989 26.0003 12.495 26.0003C12.691 26.0003 12.8849 25.9589 13.0641 25.8786L24.1741 20.6725C24.4148 20.5648 24.6187 20.3879 24.7602 20.1641C24.9017 19.9403 24.9746 19.6794 24.9698 19.4141V6.60689C24.9708 6.34236 24.8963 6.08312 24.7553 5.86002C24.6142 5.63692 24.4124 5.45937 24.1741 5.3485L13.0943 0.14241C12.9157 0.0419805 12.7146 -0.0107422 12.5101 -0.0107422C12.3056 -0.0107422 12.1045 0.0419805 11.9259 0.14241ZM21.5451 6.38363L12.4799 10.6053L9.45811 9.13382L13.2051 7.38831C13.4509 7.27258 13.6409 7.06322 13.7335 6.80629C13.826 6.54936 13.8135 6.26591 13.6986 6.01829C13.5838 5.77067 13.376 5.57917 13.121 5.48591C12.866 5.39266 12.5846 5.40529 12.3388 5.52102L7.05077 8.0581L3.47503 6.38363L12.5403 2.14163L21.5451 6.38363ZM2.01451 7.99721L5.97301 9.83406V15.8013C5.97301 16.0771 6.08179 16.3417 6.27541 16.5368C6.46903 16.7319 6.73163 16.8415 7.00545 16.8415C7.27927 16.8415 7.54187 16.7319 7.73549 16.5368C7.92911 16.3417 8.03788 16.0771 8.03788 15.8013V10.788L11.4625 12.4117V23.3415L2.01451 18.9777V7.99721ZM13.5274 23.3415V12.4117L22.9553 7.99721V18.9777L13.5274 23.3415Z" fill="#E1DAD7"/>
</svg>
